<svg xmlns="http://www.w3.org/2000/svg" xmlns:xlink="http://www.w3.org/1999/xlink" width="512" zoomAndPan="magnify" viewBox="0 0 384 383.999986" height="512" preserveAspectRatio="xMidYMid meet" version="1.2"><defs><clipPath id="505b268c94"><path d="M 192 0 C 85.960938 0 0 85.960938 0 192 C 0 298.039062 85.960938 384 192 384 C 298.039062 384 384 298.039062 384 192 C 384 85.960938 298.039062 0 192 0 Z M 192 0 "/></clipPath><clipPath id="265cf8c28f"><path d="M 0 0 L 383.390625 0 L 383.390625 383.390625 L 0 383.390625 Z M 0 0 "/></clipPath><clipPath id="4074770608"><path d="M 191.695312 0 C 85.824219 0 0 85.824219 0 191.695312 C 0 297.566406 85.824219 383.390625 191.695312 383.390625 C 297.566406 383.390625 383.390625 297.566406 383.390625 191.695312 C 383.390625 85.824219 297.566406 0 191.695312 0 Z M 191.695312 0 "/></clipPath><clipPath id="cc39976f88"><path d="M 121.335938 203.363281 L 249.132812 203.363281 L 249.132812 332 L 121.335938 332 Z M 121.335938 203.363281 "/></clipPath><clipPath id="d28d238436"><path d="M 151 307 L 219 307 L 219 340.992188 L 151 340.992188 Z M 151 307 "/></clipPath><clipPath id="780cca73e5"><path d="M 155 217 L 235 217 L 235 305 L 155 305 Z M 155 217 "/></clipPath><clipPath id="5b47f3f653"><path d="M 231.273438 210.867188 L 238.503906 297.9375 L 162.429688 304.253906 L 155.199219 217.183594 Z M 231.273438 210.867188 "/></clipPath><clipPath id="98b0d887fc"><path d="M 234.882812 254.339844 L 162.417969 304.125 L 155.199219 217.183594 Z M 234.882812 254.339844 "/></clipPath></defs><g id="0a89655417"><g clip-rule="nonzero" clip-path="url(#505b268c94)"><rect x="0" width="384" y="0" height="383.999986" style="fill:#ffffff;fill-opacity:1;stroke:none;"/></g><g clip-rule="nonzero" clip-path="url(#265cf8c28f)"><g clip-rule="nonzero" clip-path="url(#4074770608)"><path style="fill:none;stroke-width:0.305172;stroke-linecap:butt;stroke-linejoin:miter;stroke:#ffffff;stroke-opacity:1;stroke-miterlimit:4;" d="M 39.054766 0.00000000000000157 C 17.485272 0.00000000000000157 -0.00000146688 17.485273 -0.00000146688 39.054768 C -0.00000146688 60.624262 17.485272 78.109535 39.054766 78.109535 C 60.62426 78.109535 78.109534 60.624262 78.109534 39.054768 C 78.109534 17.485273 60.62426 0.00000000000000157 39.054766 0.00000000000000157 Z M 39.054766 0.00000000000000157 " transform="matrix(4.908372,0,0,4.908372,0.0000072,-0.000000000000007708)"/></g></g><g style="fill:#000000;fill-opacity:1;"><g transform="translate(39.988345, 184.241267)"><path style="stroke:none" d="M 6.09375 -137.609375 L 43.421875 -137.609375 C 53.453125 -137.609375 60.738281 -135.148438 65.28125 -130.234375 C 69.820312 -125.328125 72.09375 -117.320312 72.09375 -106.21875 L 72.09375 -100.125 C 72.09375 -86.988281 67.394531 -79.140625 58 -76.578125 C 63.757812 -75.078125 67.8125 -71.601562 70.15625 -66.15625 C 72.507812 -60.71875 73.6875 -53.507812 73.6875 -44.53125 C 73.6875 -29.90625 71.5 -18.828125 67.125 -11.296875 C 62.75 -3.765625 54.847656 0 43.421875 0 L 6.09375 0 Z M 38.609375 -85.875 C 40.960938 -85.875 42.566406 -86.753906 43.421875 -88.515625 C 44.273438 -90.273438 44.703125 -92.757812 44.703125 -95.96875 L 44.703125 -109.734375 C 44.703125 -114.222656 42.722656 -116.46875 38.765625 -116.46875 L 33 -116.46875 L 33 -85.875 Z M 35.71875 -24.1875 C 42.875 -24.1875 46.453125 -27.601562 46.453125 -34.4375 L 46.453125 -51.578125 C 46.453125 -55.742188 45.835938 -58.894531 44.609375 -61.03125 C 43.390625 -63.164062 41.226562 -64.234375 38.125 -64.234375 L 33 -64.234375 L 33 -24.34375 Z M 35.71875 -24.1875 "/></g></g><g style="fill:#000000;fill-opacity:1;"><g transform="translate(116.727386, 184.241267)"><path style="stroke:none" d="M 5.453125 -125.125 L 5.453125 -144.65625 L 33.484375 -144.65625 L 33.484375 -125.125 Z M 5.453125 0 L 5.453125 -117.265625 L 33.484375 -117.265625 L 33.484375 0 Z M 5.453125 0 "/></g></g><g style="fill:#000000;fill-opacity:1;"><g transform="translate(155.657627, 184.241267)"><path style="stroke:none" d="M 50.9375 1.28125 C 43.25 1.28125 37.75 -3.3125 34.4375 -12.5 L 34.4375 0 L 5.609375 0 L 5.609375 -138.421875 L 34.4375 -138.421875 L 34.4375 -111.65625 C 38.925781 -116.25 44.160156 -118.546875 50.140625 -118.546875 C 59.222656 -118.546875 65.738281 -115.847656 69.6875 -110.453125 C 73.632812 -105.066406 75.609375 -97.300781 75.609375 -87.15625 L 75.609375 -30.59375 C 75.609375 -20.988281 73.578125 -13.273438 69.515625 -7.453125 C 65.460938 -1.628906 59.269531 1.28125 50.9375 1.28125 Z M 41.5 -20.5 C 43.414062 -20.5 44.773438 -21.113281 45.578125 -22.34375 C 46.378906 -23.570312 46.859375 -25.117188 47.015625 -26.984375 C 47.179688 -28.859375 47.265625 -31.769531 47.265625 -35.71875 L 47.265625 -84.59375 C 47.265625 -88.75 46.890625 -91.84375 46.140625 -93.875 C 45.390625 -95.90625 43.785156 -96.921875 41.328125 -96.921875 C 38.660156 -96.921875 36.84375 -95.90625 35.875 -93.875 C 34.914062 -91.84375 34.4375 -88.851562 34.4375 -84.90625 L 34.4375 -35.71875 C 34.4375 -30.59375 34.863281 -26.773438 35.71875 -24.265625 C 36.570312 -21.753906 38.5 -20.5 41.5 -20.5 Z M 41.5 -20.5 "/></g><g transform="translate(235.92122, 184.241267)"><path style="stroke:none" d="M 5.609375 0 L 5.609375 -138.421875 L 34.125 -138.421875 L 34.125 0 Z M 5.609375 0 "/></g></g><g style="fill:#000000;fill-opacity:1;"><g transform="translate(275.652519, 184.241267)"><path style="stroke:none" d="M 38.453125 1.28125 C 26.378906 1.28125 17.722656 -2.023438 12.484375 -8.640625 C 7.253906 -15.265625 4.640625 -25.144531 4.640625 -38.28125 L 4.640625 -85.390625 C 4.640625 -96.171875 7.738281 -104.390625 13.9375 -110.046875 C 20.132812 -115.710938 28.785156 -118.546875 39.890625 -118.546875 C 62.421875 -118.546875 73.6875 -107.492188 73.6875 -85.390625 L 73.6875 -76.890625 C 73.6875 -68.347656 73.582031 -61.410156 73.375 -56.078125 L 32.6875 -56.078125 L 32.6875 -33.328125 C 32.6875 -29.265625 33.113281 -26.082031 33.96875 -23.78125 C 34.820312 -21.488281 36.632812 -20.34375 39.40625 -20.34375 C 41.539062 -20.34375 43.0625 -20.984375 43.96875 -22.265625 C 44.882812 -23.546875 45.421875 -25.015625 45.578125 -26.671875 C 45.734375 -28.328125 45.8125 -30.757812 45.8125 -33.96875 L 45.8125 -45.34375 L 73.6875 -45.34375 L 73.6875 -38.609375 C 73.6875 -24.941406 71.039062 -14.875 65.75 -8.40625 C 60.46875 -1.945312 51.367188 1.28125 38.453125 1.28125 Z M 45.8125 -70.015625 L 45.8125 -85.0625 C 45.8125 -93.5 43.726562 -97.71875 39.5625 -97.71875 C 34.863281 -97.71875 32.515625 -93.5 32.515625 -85.0625 L 32.515625 -70.015625 Z M 45.8125 -70.015625 "/></g></g><g style="fill:#000000;fill-opacity:1;"><g transform="translate(62.489574, 337.913028)"><path style="stroke:none" d="M 6.09375 0 L 6.09375 -137.609375 L 34.4375 -137.609375 L 47.09375 -71.765625 L 47.09375 -137.609375 L 73.6875 -137.609375 L 73.6875 0 L 46.78125 0 L 33 -68.890625 L 33 0 Z M 6.09375 0 "/></g></g><g style="fill:#000000;fill-opacity:1;"><g transform="translate(142.283537, 337.913028)"><path style="stroke:none" d=""/></g></g><g style="fill:#000000;fill-opacity:1;"><g transform="translate(179.771928, 337.913028)"><path style="stroke:none" d=""/></g></g><g style="fill:#000000;fill-opacity:1;"><g transform="translate(217.262885, 337.913028)"><path style="stroke:none" d="M 16.828125 0 L 2.078125 -137.609375 L 29 -137.609375 L 36.6875 -50.78125 L 44.375 -137.609375 L 70.015625 -137.609375 L 77.375 -50.78125 L 84.75 -137.609375 L 111.984375 -137.609375 L 96.921875 0 L 63.921875 0 L 57.03125 -66.328125 L 50.46875 0 Z M 16.828125 0 "/></g></g><g clip-rule="nonzero" clip-path="url(#cc39976f88)"><path style=" stroke:none;fill-rule:nonzero;fill:#eb0400;fill-opacity:1;" d="M 185.199219 203.363281 C 150.066406 203.363281 121.457031 232.097656 121.457031 267.386719 C 121.457031 289.136719 132.285156 308.367188 148.847656 319.890625 L 148.847656 313.046875 C 135.441406 302.390625 126.90625 285.824219 126.90625 267.386719 C 126.90625 235.125 153.078125 208.835938 185.199219 208.835938 C 217.320312 208.835938 243.492188 235.125 243.492188 267.386719 C 243.492188 285.824219 234.957031 302.390625 221.621094 313.046875 L 221.621094 319.890625 C 238.113281 308.292969 249.011719 289.066406 249.011719 267.386719 C 248.941406 232.097656 220.332031 203.363281 185.199219 203.363281 Z M 151.714844 315.28125 L 151.714844 321.832031 C 161.464844 327.882812 172.9375 331.414062 185.199219 331.414062 C 197.460938 331.414062 208.929688 327.882812 218.683594 321.832031 L 218.683594 315.28125 C 209.21875 321.976562 197.601562 325.9375 185.199219 325.9375 C 172.722656 325.9375 161.179688 321.976562 151.714844 315.28125 Z M 151.714844 315.28125 "/></g><g clip-rule="nonzero" clip-path="url(#d28d238436)"><path style=" stroke:none;fill-rule:nonzero;fill:#eb0400;fill-opacity:1;" d="M 218.683594 311.535156 L 218.683594 336.742188 C 218.683594 339.046875 216.816406 340.992188 214.453125 340.992188 L 155.875 340.992188 C 153.578125 340.992188 151.644531 339.117188 151.644531 336.742188 L 151.644531 311.535156 C 151.644531 309.230469 153.507812 307.359375 155.875 307.359375 L 214.523438 307.359375 C 216.816406 307.359375 218.683594 309.230469 218.683594 311.535156 Z M 218.683594 311.535156 "/></g><path style=" stroke:none;fill-rule:nonzero;fill:#ffffff;fill-opacity:1;" d="M 165.339844 329.324219 L 171.359375 329.324219 L 171.359375 331.339844 L 162.398438 331.339844 L 162.398438 315.929688 L 165.339844 315.929688 Z M 165.339844 329.324219 "/><path style=" stroke:none;fill-rule:nonzero;fill:#ffffff;fill-opacity:1;" d="M 173.796875 316 L 176.738281 316 L 176.738281 331.414062 L 173.796875 331.414062 Z M 173.796875 316 "/><path style=" stroke:none;fill-rule:nonzero;fill:#ffffff;fill-opacity:1;" d="M 195.953125 316 L 189.214844 331.414062 L 185.84375 331.414062 L 179.105469 316 L 182.257812 316 L 187.566406 328.820312 L 192.871094 316 Z M 195.953125 316 "/><path style=" stroke:none;fill-rule:nonzero;fill:#ffffff;fill-opacity:1;" d="M 201.332031 318.015625 L 201.332031 322.554688 L 207.496094 322.554688 L 207.496094 324.640625 L 201.332031 324.640625 L 201.332031 329.324219 L 208.285156 329.324219 L 208.285156 331.414062 L 198.390625 331.414062 L 198.390625 316 L 208.285156 316 L 208.285156 318.089844 L 201.332031 318.089844 Z M 201.332031 318.015625 "/><g clip-rule="nonzero" clip-path="url(#780cca73e5)"><g clip-rule="nonzero" clip-path="url(#5b47f3f653)"><g clip-rule="nonzero" clip-path="url(#98b0d887fc)"><path style=" stroke:none;fill-rule:nonzero;fill:#ff0000;fill-opacity:1;" d="M 231.273438 210.867188 L 238.503906 297.9375 L 162.429688 304.253906 L 155.199219 217.183594 Z M 231.273438 210.867188 "/></g></g></g></g></svg>